<mxfile host="app.diagrams.net" modified="2022-03-22T13:19:53.159Z" agent="5.0 (Macintosh; Intel Mac OS X 10_15_7) AppleWebKit/537.36 (KHTML, like Gecko) Chrome/99.0.4844.74 Safari/537.36" etag="mFfHzw3JFOLCU7rqB7lT" version="16.5.6" type="github">
  <diagram id="5CX_rG-zvnC8JcVR6oz8" name="Page-1">
    <mxGraphModel dx="946" dy="449" grid="1" gridSize="10" guides="1" tooltips="1" connect="1" arrows="1" fold="1" page="1" pageScale="1" pageWidth="827" pageHeight="1169" math="0" shadow="0">
      <root>
        <mxCell id="0" />
        <mxCell id="1" parent="0" />
        <mxCell id="Acm-rJ_vbFi8JhD6VG_k-1" value="User" style="shape=umlActor;verticalLabelPosition=bottom;verticalAlign=top;html=1;" parent="1" vertex="1">
          <mxGeometry x="130" y="180" width="30" height="60" as="geometry" />
        </mxCell>
        <mxCell id="RvngBc4G8aP8ZNYtZs-l-1" value="Learn@home - Connexion" style="swimlane;" vertex="1" parent="1">
          <mxGeometry x="240" y="40" width="320" height="340" as="geometry" />
        </mxCell>
        <mxCell id="RvngBc4G8aP8ZNYtZs-l-3" value="Inscription" style="ellipse;whiteSpace=wrap;html=1;" vertex="1" parent="RvngBc4G8aP8ZNYtZs-l-1">
          <mxGeometry x="100" y="30" width="120" height="80" as="geometry" />
        </mxCell>
        <mxCell id="RvngBc4G8aP8ZNYtZs-l-4" value="Connexion" style="ellipse;whiteSpace=wrap;html=1;" vertex="1" parent="RvngBc4G8aP8ZNYtZs-l-1">
          <mxGeometry x="100" y="140" width="120" height="80" as="geometry" />
        </mxCell>
        <mxCell id="RvngBc4G8aP8ZNYtZs-l-5" value="Mot de passe oubliÃ©" style="ellipse;whiteSpace=wrap;html=1;" vertex="1" parent="RvngBc4G8aP8ZNYtZs-l-1">
          <mxGeometry x="100" y="250" width="120" height="80" as="geometry" />
        </mxCell>
        <mxCell id="RvngBc4G8aP8ZNYtZs-l-11" value="" style="endArrow=classic;html=1;rounded=0;" edge="1" parent="1" source="Acm-rJ_vbFi8JhD6VG_k-1" target="RvngBc4G8aP8ZNYtZs-l-3">
          <mxGeometry width="50" height="50" relative="1" as="geometry">
            <mxPoint x="210" y="230" as="sourcePoint" />
            <mxPoint x="260" y="180" as="targetPoint" />
          </mxGeometry>
        </mxCell>
        <mxCell id="RvngBc4G8aP8ZNYtZs-l-12" value="" style="endArrow=classic;html=1;rounded=0;" edge="1" parent="1" source="Acm-rJ_vbFi8JhD6VG_k-1" target="RvngBc4G8aP8ZNYtZs-l-4">
          <mxGeometry width="50" height="50" relative="1" as="geometry">
            <mxPoint x="390" y="310" as="sourcePoint" />
            <mxPoint x="440" y="260" as="targetPoint" />
          </mxGeometry>
        </mxCell>
        <mxCell id="RvngBc4G8aP8ZNYtZs-l-13" value="" style="endArrow=classic;html=1;rounded=0;" edge="1" parent="1" source="Acm-rJ_vbFi8JhD6VG_k-1" target="RvngBc4G8aP8ZNYtZs-l-5">
          <mxGeometry width="50" height="50" relative="1" as="geometry">
            <mxPoint x="390" y="310" as="sourcePoint" />
            <mxPoint x="440" y="260" as="targetPoint" />
          </mxGeometry>
        </mxCell>
      </root>
    </mxGraphModel>
  </diagram>
</mxfile>
